<svg xmlns="http://www.w3.org/2000/svg" viewBox="0 0 128 128">
  <defs>
    <linearGradient id="bg" x1="0%" y1="0%" x2="100%" y2="100%">
      <stop offset="0%" style="stop-color:#2dd4a0"/>
      <stop offset="100%" style="stop-color:#17a673"/>
    </linearGradient>
  </defs>
  <rect width="128" height="128" rx="28" fill="url(#bg)"/>
  <!-- Cute cat ears -->
  <polygon points="30,38 42,12 56,34" fill="#fff" opacity="0.9"/>
  <polygon points="72,34 86,12 98,38" fill="#fff" opacity="0.9"/>
  <polygon points="35,36 42,18 52,34" fill="#ffccdd" opacity="0.7"/>
  <polygon points="76,34 86,18 93,36" fill="#ffccdd" opacity="0.7"/>
  <!-- Face circle -->
  <circle cx="64" cy="68" r="38" fill="#fff" opacity="0.92"/>
  <!-- Eyes -->
  <ellipse cx="50" cy="62" rx="5" ry="6" fill="#333"/>
  <ellipse cx="78" cy="62" rx="5" ry="6" fill="#333"/>
  <!-- Eye sparkles -->
  <circle cx="48" cy="59" r="2" fill="#fff"/>
  <circle cx="76" cy="59" r="2" fill="#fff"/>
  <!-- Nose -->
  <ellipse cx="64" cy="72" rx="3" ry="2.5" fill="#ffaacc"/>
  <!-- Mouth -->
  <path d="M58 76 Q61 80 64 76 Q67 80 70 76" fill="none" stroke="#333" stroke-width="1.8" stroke-linecap="round"/>
  <!-- Whiskers -->
  <line x1="28" y1="68" x2="44" y2="70" stroke="#ccc" stroke-width="1.5" stroke-linecap="round"/>
  <line x1="28" y1="76" x2="44" y2="75" stroke="#ccc" stroke-width="1.5" stroke-linecap="round"/>
  <line x1="84" y1="70" x2="100" y2="68" stroke="#ccc" stroke-width="1.5" stroke-linecap="round"/>
  <line x1="84" y1="75" x2="100" y2="76" stroke="#ccc" stroke-width="1.5" stroke-linecap="round"/>
  <!-- API badge -->
  <rect x="44" y="88" width="40" height="18" rx="9" fill="#333" opacity="0.85"/>
  <text x="64" y="101" text-anchor="middle" font-family="Arial, sans-serif" font-weight="bold" font-size="12" fill="#49cc90">API</text>
</svg>
