<svg xmlns="http://www.w3.org/2000/svg" viewBox="0 0 128 128">
  <rect width="128" height="128" rx="16" fill="#173647"/>
  <g transform="translate(20, 24)">
    <!-- Swagger-like braces -->
    <path d="M28 0 C20 0, 16 4, 16 10 L16 30 C16 36, 12 40, 4 40 C12 40, 16 44, 16 50 L16 70 C16 76, 20 80, 28 80"
          fill="none" stroke="#49cc90" stroke-width="5" stroke-linecap="round"/>
    <path d="M60 0 C68 0, 72 4, 72 10 L72 30 C72 36, 76 40, 84 40 C76 40, 72 44, 72 50 L72 70 C72 76, 68 80, 60 80"
          fill="none" stroke="#49cc90" stroke-width="5" stroke-linecap="round"/>
    <!-- API text -->
    <text x="44" y="46" text-anchor="middle" font-family="Arial, sans-serif" font-weight="bold" font-size="22" fill="#fff">API</text>
  </g>
</svg>
